Coordinates
version=1
nRows=15
nColumns=34
inDegrees=no

Units are S.I. units (second, meters, Newtons, ...)
If the header above contains a line with 'inDegrees', this indicates whether rotational values are in degrees (yes) or radians (no).

endheader
time	pelvis_tilt	pelvis_list	pelvis_rotation	pelvis_tx	pelvis_ty	pelvis_tz	hip_flexion_r	hip_adduction_r	hip_rotation_r	knee_angle_r	ankle_angle_r	subtalar_angle_r	mtp_angle_r	hip_flexion_l	hip_adduction_l	hip_rotation_l	knee_angle_l	ankle_angle_l	subtalar_angle_l	mtp_angle_l	lumbar_extension	lumbar_bending	lumbar_rotation	arm_flex_r	arm_add_r	arm_rot_r	elbow_flex_r	pro_sup_r	arm_flex_l	arm_add_l	arm_rot_l	elbow_flex_l	pro_sup_l
6.75	-0.202513	-0.0396511	-0.0751588	-0.27557	0.680815	-0.532685	1.3024	0.00422113	-0.0957501	1.90827	0.822722	-0.177996	-0.0572636	1.41927	-0.401767	0.198067	1.93189	0.54544	-0.157522	-0.0572619	-0.628544	0.0504968	0.0752474	0.958944	-0.318894	-0.0480096	1.58991	1.66775	0.759185	-0.330324	-0.1836	1.69988	1.56807
6.76	-0.201797	-0.0400033	-0.074577	-0.275142	0.684414	-0.532561	1.29499	0.00449605	-0.0965147	1.89865	0.819837	-0.179073	-0.0572636	1.41056	-0.400935	0.194029	1.92231	0.543328	-0.161675	-0.0572619	-0.625753	0.0499384	0.0757441	0.952843	-0.317847	-0.0502083	1.58721	1.66961	0.755139	-0.329241	-0.182315	1.69794	1.56747
6.77	-0.201145	-0.0402053	-0.0738802	-0.274685	0.688362	-0.532417	1.28702	0.00477404	-0.0971297	1.88801	0.81654	-0.180335	-0.0572636	1.40113	-0.400032	0.189394	1.9117	0.540874	-0.166028	-0.0572619	-0.622607	0.049286	0.0762325	0.946025	-0.316834	-0.0524117	1.58406	1.67096	0.750637	-0.327896	-0.180759	1.69527	1.56707
6.78	-0.200534	-0.040258	-0.0730185	-0.274196	0.692658	-0.532259	1.27845	0.0049935	-0.0976083	1.87635	0.812852	-0.181747	-0.0572636	1.391	-0.39898	0.184231	1.90009	0.537966	-0.170561	-0.0572619	-0.619137	0.048568	0.0767114	0.938442	-0.315916	-0.0546339	1.58049	1.67178	0.745687	-0.326248	-0.178943	1.69185	1.5669
6.79	-0.199936	-0.0401746	-0.071942	-0.273672	0.697299	-0.532092	1.26925	0.00509782	-0.0979803	1.86367	0.8088	-0.183281	-0.0572636	1.3802	-0.397707	0.178623	1.88749	0.534508	-0.175254	-0.0572619	-0.615376	0.0478227	0.0771785	0.930057	-0.315138	-0.0568951	1.57649	1.67212	0.740289	-0.324265	-0.17689	1.68766	1.56699
6.8	-0.199317	-0.0399785	-0.0706133	-0.27311	0.70228	-0.531919	1.25936	0.00504793	-0.0982863	1.84996	0.804406	-0.184919	-0.0572636	1.36874	-0.396165	0.17266	1.87393	0.530459	-0.18008	-0.057262	-0.611358	0.04709	0.0776358	0.920849	-0.314524	-0.0592102	1.57205	1.67206	0.734434	-0.321935	-0.174635	1.68268	1.56739
6.81	-0.198644	-0.0396988	-0.0690174	-0.272506	0.707595	-0.531743	1.24876	0.0048273	-0.0985718	1.83524	0.799682	-0.186659	-0.0572636	1.35662	-0.394342	0.166423	1.85941	0.525833	-0.184995	-0.057262	-0.607109	0.0464047	0.0780928	0.910811	-0.314082	-0.0615786	1.5671	1.67171	0.728096	-0.319265	-0.172199	1.67688	1.56817
6.82	-0.197888	-0.0393641	-0.0671654	-0.271853	0.713235	-0.531564	1.23742	0.00444004	-0.0988802	1.81952	0.794628	-0.188497	-0.0572636	1.34383	-0.392267	0.15997	1.84396	0.52069	-0.189946	-0.057262	-0.60265	0.0457886	0.0785681	0.899954	-0.313807	-0.0639799	1.56158	1.67119	0.721243	-0.316279	-0.169585	1.67025	1.56942
6.83	-0.19702	-0.0389969	-0.0650957	-0.271148	0.719187	-0.53138	1.22534	0.00390569	-0.0992481	1.80282	0.789234	-0.190427	-0.0572636	1.33036	-0.390004	0.15333	1.82757	0.515106	-0.194883	-0.057262	-0.598	0.0452447	0.0790894	0.888297	-0.313686	-0.0663798	1.55541	1.67064	0.713836	-0.313019	-0.166767	1.66275	1.5712
6.84	-0.196019	-0.0386089	-0.0628696	-0.270385	0.725438	-0.531187	1.21251	0.00325339	-0.0997	1.78517	0.78349	-0.192428	-0.0572636	1.31618	-0.387644	0.146499	1.81026	0.509156	-0.199761	-0.057262	-0.593172	0.0447539	0.0796895	0.875868	-0.3137	-0.068742	1.54852	1.67023	0.70584	-0.309547	-0.163691	1.65436	1.57361
6.85	-0.194866	-0.0381999	-0.0605643	-0.269561	0.731973	-0.530982	1.19895	0.00251593	-0.100245	1.7666	0.777386	-0.194459	-0.0572636	1.30126	-0.385288	0.139454	1.79204	0.502896	-0.204535	-0.057262	-0.58818	0.0442777	0.0804015	0.862695	-0.313814	-0.0710396	1.54087	1.67007	0.697222	-0.305942	-0.160295	1.64506	1.5768
6.86	-0.193558	-0.0377571	-0.0582615	-0.268671	0.738774	-0.530762	1.18469	0.00172187	-0.100875	1.74716	0.770924	-0.196465	-0.0572636	1.28559	-0.383025	0.13216	1.77294	0.496367	-0.209148	-0.0572621	-0.583031	0.0437657	0.0812516	0.848808	-0.313984	-0.0732632	1.53246	1.67028	0.687963	-0.30229	-0.156528	1.63485	1.58097
6.87	-0.1921	-0.0372553	-0.0560355	-0.267716	0.745821	-0.530522	1.16978	0.000886981	-0.101567	1.72687	0.764119	-0.198377	-0.0572636	1.26918	-0.380917	0.124582	1.753	0.489596	-0.213521	-0.0572621	-0.577725	0.0431638	0.0822496	0.834237	-0.314155	-0.0754206	1.5233	1.67084	0.67805	-0.298675	-0.152369	1.62372	1.58631
6.88	-0.190513	-0.0366599	-0.0539437	-0.266694	0.753091	-0.530264	1.15428	9.95824e-06	-0.102284	1.7058	0.756996	-0.200122	-0.0572636	1.25205	-0.378994	0.11669	1.73225	0.482602	-0.217549	-0.0572621	-0.572254	0.0424221	0.083381	0.819021	-0.314264	-0.0775294	1.51343	1.67171	0.66748	-0.295176	-0.147837	1.61172	1.59287
6.89	-0.188826	-0.0359344	-0.0520241	-0.265607	0.760561	-0.529989	1.13827	-0.000922981	-0.102985	1.68401	0.749588	-0.201631	-0.0572636	1.23426	-0.377254	0.108467	1.71075	0.475399	-0.221102	-0.0572621	-0.566612	0.041502	0.0846075	0.803208	-0.314249	-0.0796037	1.50292	1.67277	0.656253	-0.291862	-0.142996	1.59896	1.60054
